<?xml version="1.0" encoding="utf-8"?>
<!-- Generator: Adobe Illustrator 16.0.4, SVG Export Plug-In . SVG Version: 6.00 Build 0)  -->
<!DOCTYPE svg PUBLIC "-//W3C//DTD SVG 1.1//EN" "http://www.w3.org/Graphics/SVG/1.1/DTD/svg11.dtd">
<svg version="1.1" id="Livello_1" xmlns="http://www.w3.org/2000/svg" xmlns:xlink="http://www.w3.org/1999/xlink" x="0px" y="0px"
	 width="85.04px" height="85.04px" viewBox="0 0 85.04 85.04" enable-background="new 0 0 85.04 85.04" xml:space="preserve">
<g>
	<path d="M42.52,5c20.688,0,37.52,16.832,37.52,37.52S63.208,80.04,42.52,80.04S5,63.208,5,42.52S21.832,5,42.52,5 M42.52,0
		C19.037,0,0,19.037,0,42.52c0,23.482,19.037,42.52,42.52,42.52c23.482,0,42.52-19.037,42.52-42.52C85.04,19.037,66.002,0,42.52,0
		L42.52,0z"/>
</g>
<line fill="none" stroke="#000000" stroke-width="5" stroke-miterlimit="10" x1="1.63" y1="43.015" x2="84.399" y2="43.015"/>
<line fill="none" stroke="#000000" stroke-width="5" stroke-miterlimit="10" x1="43.015" y1="1.63" x2="43.015" y2="84.399"/>
</svg>
